<?xml version="1.0" encoding="UTF-8"?>
<svg id="Layer_1" data-name="Layer 1" xmlns="http://www.w3.org/2000/svg" viewBox="0 0 450.9688 583.8017">
  <defs>
    <style>
      .cls-1 {
        fill: #fff;
        stroke-width: 0px;
      }

      .cls-2, .cls-3, .cls-4 {
        fill: none;
      }

      .cls-2, .cls-3, .cls-4, .cls-5, .cls-6, .cls-7 {
        stroke: #000;
        stroke-miterlimit: 10;
      }

      .cls-2, .cls-4, .cls-5, .cls-6, .cls-7 {
        stroke-width: 7px;
      }

      .cls-2, .cls-7 {
        stroke-linecap: round;
      }

      .cls-3 {
        stroke-width: 5px;
      }

      .cls-5 {
        fill: #c41230;
      }
    </style>
  </defs>
  <path class="cls-4" d="m240.3893,580.3017c.1423-3.394,6.2823-52.7404-30-78-25.5762-17.806-53.114-14.05-60-13-3.7326.5692-50.187,8.3974-64,47-1.0049,2.8083-1.5945,5.1679-2.0988,7.2154-3.7326,15.1553-2.8724,28.2116-1.5711,36.7846h157.6699Z"/>
  <path class="cls-4" d="m427.4527,580.3017c.7288-10.209,1.1731-36.7343-16.0634-61-5.875-8.2709-12.4182-14.3282-18.1111-18.6667-3.4476-2.4202-8.5155-5.5307-15.1111-8.1111-5.7521-2.2504-10.3848-3.2052-14.3334-4-.0001,0-9.9261-1.998-18.9476-2.1438-8.9804-.1452-49.3916,2.5308-69.4968,35.9216-12.7646,21.1995-10.1392,51.0008-9,58h161.0634Z"/>
  <path class="cls-4" d="m327.9771,251.3017c8.679,16.8192,19.7986,43.256,24.0528,77.2601.6617,5.2897,2.4351,20.975,1.3594,41.7399,0,0-1.4611,50.2666-21.3967,97.3087-2.0273,4.7838-8.8512,20.1774-19.7127,24.3159-1.0863.4139-3.5335,1.2184-6.9561,2.8836-2.3893,1.1625-7.6563,3.9133-13.3761,8.7529-5.5215,4.6718-8.8029,9.0377-12.6589,14.2346-6.5276,8.7975-6.1261,10.6386-11.3747,16.1483-5.1743,5.4317-10.023,8.3226-11.0574,8.9278-7.0411,4.1196-13.823,5.5839-18.4816,6.137"/>
  <path class="cls-2" d="m150.3893,445.3017c12.5131,7.8763,15.8591,24.5259,8,36-8.2943,12.1094-25.0792,12.6295-34,7-5.944-3.751-7.9627-10.1674-12-23-4.5401-14.4307-2.4807-17.0511-6-28-5.4161-16.8499-12.7118-18.1672-17-31-4.4088-13.1937-1.1094-25.0056,3-39,4.1348-14.0809,19.1752-65.3015,52-69,12.3017-1.3861,26.3756,3.9841,34,14,4.9172,6.4596,4.8149,17.4022,5,39,.1505,17.5675-1.4879,24.8875-2.2144,27.8277-2.5045,10.1354-4.9169,19.8984-12.7856,25.1723-11.3008,7.5742-27.9958,1.9618-28,2-.0045.0409,19.9893-1.3675,34,7,14.9731,8.9422,29.5655,30.4362,24,52-3.4552,13.3874-13.2123,21.3955-17.5959,24.5507"/>
  <path class="cls-4" d="m83.1145,549.0106c-35.9123-24.6805-52.8956-52.7831-60.7252-68.7089-25.139-51.1342-24.2094-115.6593-3-133,1.7114-1.3992,6.4414-5.2665,11-4,8.7125,2.4205,8.8014,21.3709,13,41,2.825,13.2074,8.4861,31.2827,21,52"/>
  <path class="cls-4" d="m103.2686,511.2743c-9.0791-8.1876-25.321-25.2403-33.8793-51.9726-2.1841-6.8222-15.0932-49.2806,8-91,8.4179-15.2075,18.8955-25.3972,26.1711-31.438"/>
  <path class="cls-2" d="m128.4592,304.36c3.31-19.3528,6.6201-38.7055,9.9301-58.0583"/>
  <path class="cls-2" d="m152.3893,250.3017c-46.3599-23.6826-55.907-45.0181-57-59-.7371-9.4302,2.3789-15.4203,10-45,5.2267-20.2864,7.4861-30.6016,9.6895-41.5883"/>
  <path class="cls-2" d="m194.3893,290.3017c49.8729-1.1478,97.7457-2.2955,147.6185-3.4432"/>
  <path class="cls-2" d="m301.9784,116.2094c42.308.8828,80.1029-.7905,122.4109.0923.8917-10.481,1.2423-32.7028-11-56-17.8203-33.9122-49.6469-45.9799-58-49-9.1095-3.2936-16.1113-4.2674-28-6-21.5556-3.1414-29.7341-1.2792-62-1-49.0244.4243-67.7239-3.5496-92.0628,10.0994-2.1646,1.2139-3.8932,2.2977-5.0078,3.0182"/>
  <path class="cls-6" d="m207.3893,111.3017c.743-15.7892,14.3583-28.5387,30-29,16.9775-.5007,32.2737,13.5953,32,31-.2568,16.3334-14.1304,29.5161-30,30-17.4689.5327-32.8254-14.4598-32-32Z"/>
  <path class="cls-1" d="m232.3893,100.3017c4.1754.176,9.4351,2.9694,10,8,.5589,4.9771-3.8187,9.1065-8,10-6.3307,1.3528-13.5142-4.4337-13-10,.4171-4.5154,5.838-8.2176,11-8Z"/>
  <path class="cls-2" d="m275.3893,156.3017c-3.8064,5.822-9.5505,12.263-18,15-10.8373,3.5104-19.9597-1.0693-21,1-1.0328,2.0545,6.6094,10.2539,40,31,52,0,104-1,156-1,2.118-20.1378,2.757-24.3917,2.9364-24.3755.3494.0314-.6672,16.2769-3.9364,34.3755-3.4863,19.3015-6.5236,24.0408-9,27-6.5859,7.8698-15.6051,10.7957-21,12"/>
  <path class="cls-2" d="m301.9784,116.2094c.8996-7.1547-2.0752-29.8887-14.5891-47.9077-19.0282-27.399-59.2896-33.0536-83-21-29.0616,14.7739-43.3542,61.8813-44,63-33.3381-.4651-59.1136-14.6608-62-32-1.8776-11.2794,6.7483-22.1863,24-44,20.5445-25.9772,30.4537-25.3364,33-25,2.6596.3513,4.4517,1.3171,12.9294,8.1177,9.8942,7.9368,27.1921,21.5454,29.7372,28.8823.4121,1.188.3422,3.4324-.8856,5.5153-.4889.8294-2.912,2.0884-2.7921,2.2217.3012.3349,2.4557-1.0677-2.989,3.0964-10.8628,8.3077-19.8895,22.9515-24,35.1667-17.3718,51.6242-26.0577,77.4363-25,84,5.6648,35.1522,49.2653,64.0002,104,75h155"/>
  <path class="cls-2" d="m435.3257,177.9262l-2.9364,24.3755h-156l-26.6265-24.3012c42.3694-1.4501,66.6849-.0655,89.6265,1.3012,7.7994.4647,26.1997.3098,63.0001,0,30.4576-.2564,39.6832-.709,43.4913-6.6982,9.3881-14.7648-25.9146-56.394-25.9146-56.394"/>
  <path class="cls-4" d="m353.2669,343.4251c2.6957,11.7482,8.4231,27.6012,22.1224,38.8766,17.6305,14.511,32.6816,8.7073,45,23,12.6451,14.6719,15.1515,43.319,1,54-4.163,3.1421-9.2853,4.5825-9.2854,4.5826-6.2239,1.6273-11.5118.4828-14.048-.2492-2.0295-1.5789-4.4895-3.8026-6.8202-6.8324-10.9598-14.2478-7.8486-34.7205-8.8464-34.5009-.4147.0912,11.5439,28.0631,0,41-5.7156,6.4052-14.4336,6.0331-15,6-11.5247-.6737-22.6407-13.1973-24.6519-31.5154"/>
  <circle class="cls-4" cx="399.1757" cy="146.0881" r="1.7864"/>
  <circle class="cls-4" cx="347.3893" cy="146.8659" r="1.7864"/>
  <line class="cls-2" x1="416.9672" y1="67.9045" x2="330.977" y2="67.9045"/>
  <path class="cls-7" d="m408.3073,51.7362h-34.3324c-4.3331,0-31.2637-.3115-35.5856,0-7.2496.5224-25.7552,1.6341-27.4113-.8307-2.5278-3.7623-2.5366-4.8644-5.7754-9.3602q-4.4359-6.1574-10.8133-15.6386h85.6667l21,23.3951"/>
  <path class="cls-2" d="m169.985,531.8813c3.0319,2.6522,8.899,8.5397,11.9994,17.9991,4.8187,14.7022-.562,27.3063-1.9999,30.4213"/>
  <path class="cls-2" d="m363.9748,532.8813c3.2755,1.8518,9.0969,5.8002,12.9994,12.9994,8.613,15.8893-.1404,32.8221-1,34.4211"/>
  <line class="cls-4" x1="54.5116" y1="417.6523" x2="12.1437" y2="454.4596"/>
  <line class="cls-4" x1="33.3276" y1="499.2477" x2="65.3675" y2="441.982"/>
  <line class="cls-4" x1="3.5" y1="424.069" x2="49.3476" y2="400.1561"/>
  <line class="cls-4" x1="3.752" y1="390.8744" x2="42.4292" y2="379.4426"/>
  <polyline class="cls-3" points="277.7226 179.635 289.979 199.3017 302.0811 179.7706 312.9779 200.8017 324.1709 180.4429 333.977 200.8017 345.6029 181.5131 357.7278 200.8017 366.9785 181.5671 377.9748 200.8017 389.736 181.3908 400.3893 200.8017 412.9777 181.1837 424.7721 200.8017 435.915 177.7048"/>
  <polygon class="cls-5" points="212.2313 362.1738 212.2313 427.6718 271.1687 460.4208 330.1061 427.6718 330.1061 362.1738 271.1687 329.4248 212.2313 362.1738"/>
</svg>